<?xml version="1.0" encoding="iso-8859-1"?>
<!-- Generator: Adobe Illustrator 18.0.0, SVG Export Plug-In . SVG Version: 6.00 Build 0)  -->
<!DOCTYPE svg PUBLIC "-//W3C//DTD SVG 1.1//EN" "http://www.w3.org/Graphics/SVG/1.1/DTD/svg11.dtd">
<svg version="1.1" id="Capa_1" xmlns="http://www.w3.org/2000/svg" xmlns:xlink="http://www.w3.org/1999/xlink" x="0px" y="0px"
	 viewBox="0 0 408.421 408.421" style="enable-background:new 0 0 408.421 408.421;" xml:space="preserve">
<g>
	<path d="M384.786,168.062L384.786,168.062l-16.923-11.712l-17.059-74.37c-5.062-22.068-24.41-37.48-47.051-37.48H104.667
		c-22.641,0-41.989,15.412-47.051,37.48l-17.059,74.37l-16.923,11.712C8.835,178.304,0,195.164,0,213.162v76.76
		c0,12.468,9.725,22.701,21.987,23.529v33.276c0,9.481,7.713,17.194,17.194,17.194h37.147c9.481,0,17.194-7.713,17.194-17.194
		v-33.216h53.772c1.304,14.904,13.845,26.637,29.082,26.637h70.59c15.237,0,27.779-11.732,29.083-26.637h38.849v33.216
		c0,9.481,7.713,17.194,17.194,17.194h37.147c9.481,0,17.194-7.713,17.194-17.194v-33.276c12.262-0.827,21.987-11.061,21.987-23.529
		v-76.76C408.421,195.164,399.586,178.304,384.786,168.062z M32.171,180.396l19.314-13.367c1.539-1.065,2.624-2.667,3.042-4.49
		l17.709-77.205C75.726,70.123,89.062,59.5,104.667,59.5h199.086c15.605,0,28.941,10.623,32.431,25.834l17.709,77.205
		c0.418,1.824,1.503,3.426,3.042,4.49l19.314,13.367c10.752,7.441,17.171,19.69,17.171,32.766v51.989H15v-51.989
		C15,200.086,21.419,187.837,32.171,180.396z M78.522,346.727c0,1.21-0.984,2.194-2.194,2.194H39.181
		c-1.21,0-2.194-0.984-2.194-2.194v-33.216h41.536V346.727z M246.967,325.148h-70.59c-6.954,0-12.745-5.028-13.957-11.637h98.506
		C259.713,320.12,253.921,325.148,246.967,325.148z M369.24,348.922h-37.147c-1.21,0-2.194-0.984-2.194-2.194v-33.216h41.536v33.216
		C371.435,347.937,370.45,348.922,369.24,348.922z M384.832,298.511H23.589c-4.736,0-8.589-3.853-8.589-8.589v-9.771h378.421v9.771
		C393.421,294.658,389.568,298.511,384.832,298.511z"/>
	<path d="M69.79,168.358h268.84c2.284,0,4.443-1.041,5.866-2.827s1.955-4.124,1.444-6.35L329.359,86.9
		c-2.758-12.012-13.289-20.402-25.61-20.402h-199.08c-12.321,0-22.852,8.39-25.61,20.403l-16.58,72.28
		c-0.511,2.226,0.021,4.563,1.444,6.35S67.506,168.358,69.79,168.358z M93.68,90.256c1.184-5.156,5.703-8.758,10.99-8.758h199.08
		c5.287,0,9.806,3.602,10.99,8.757l14.475,63.103H79.205L93.68,90.256z"/>
	<path d="M69.713,257.068c21.126,0,38.314-17.188,38.314-38.314c0-4.142-3.358-7.5-7.5-7.5H38.899c-4.142,0-7.5,3.358-7.5,7.5
		C31.399,239.88,48.587,257.068,69.713,257.068z M91.79,226.254c-3.129,9.188-11.844,15.814-22.077,15.814
		s-18.947-6.626-22.077-15.814H91.79z"/>
	<path d="M300.394,218.754c0,21.126,17.188,38.314,38.314,38.314s38.314-17.188,38.314-38.314c0-4.142-3.358-7.5-7.5-7.5h-61.628
		C303.752,211.254,300.394,214.611,300.394,218.754z M360.785,226.254c-3.129,9.188-11.844,15.814-22.077,15.814
		s-18.947-6.626-22.077-15.814H360.785z"/>
	<path d="M281.024,239.42c-5.648-3.809-13.189,1.705-11.386,8.225c0.817,2.955,3.398,5.141,6.448,5.462
		c3.319,0.35,6.548-1.625,7.76-4.728C285.108,245.149,283.927,241.333,281.024,239.42C280.624,239.15,281.434,239.69,281.024,239.42
		z"/>
	<path d="M256.95,238.152H131.559c-4.142,0-7.5,3.358-7.5,7.5s3.358,7.5,7.5,7.5H256.95c4.142,0,7.5-3.358,7.5-7.5
		S261.092,238.152,256.95,238.152z"/>
	<path d="M124.634,221.62c2.023,4.898,8.473,6.089,12.23,2.44c4.131-4.253,1.9-11.628-3.993-12.687
		C127.185,210.35,122.369,216.254,124.634,221.62C124.824,222.079,124.444,221.17,124.634,221.62z"/>
	<path d="M276.863,226.254c4.142,0,7.5-3.358,7.5-7.5s-3.358-7.5-7.5-7.5H151.472c-4.142,0-7.5,3.358-7.5,7.5s3.358,7.5,7.5,7.5
		H276.863z"/>
</g>
<g>
</g>
<g>
</g>
<g>
</g>
<g>
</g>
<g>
</g>
<g>
</g>
<g>
</g>
<g>
</g>
<g>
</g>
<g>
</g>
<g>
</g>
<g>
</g>
<g>
</g>
<g>
</g>
<g>
</g>
</svg>
