<?xml version="1.0" encoding="iso-8859-1"?>
<!-- Generator: Adobe Illustrator 19.1.0, SVG Export Plug-In . SVG Version: 6.00 Build 0)  -->
<svg version="1.1" id="Capa_1" xmlns="http://www.w3.org/2000/svg" xmlns:xlink="http://www.w3.org/1999/xlink" x="0px" y="0px"
	 viewBox="0 0 432.762 432.762" style="enable-background:new 0 0 432.762 432.762;" xml:space="preserve">
<g>
	<g>
	</g>
	<g>
	</g>
	<g>
	</g>
	<g>
	</g>
	<g>
	</g>
	<g>
	</g>
	<g>
	</g>
	<g>
	</g>
	<g>
	</g>
	<g>
	</g>
	<g>
	</g>
	<g>
	</g>
	<g>
	</g>
	<g>
	</g>
	<g>
	</g>
</g>
<g>
	<path style="fill:#231F20;" d="M296.749,247.023c-8.523-13.093-27.527-17.152-40.691-8.593l-30.068,19.569
		c-0.3,0.194-0.582,0.388-0.865,0.582c-26.469-25.057-67.336-70.636-87.452-128.443c1.235-0.706,2.435-1.447,3.617-2.223
		l30.015-19.569c13.57-8.858,17.434-27.122,8.576-40.691l-35.556-54.561C135.785,0,116.798-4.058,103.634,4.518L73.566,24.087
		C44.397,43.391,44.15,78.418,58.955,104.128c-0.423,107.976,36.858,180.86,113.611,221.397c-1.976,2.816-4.034,5.873-6.061,9.091
		c4.782,0.212,9.017,1.729,12.511,3.282c1.2,0.547,2.753,1.641,4.041,2.7c1.639-2.52,3.353-5.041,5.11-7.522
		c8.421,3.732,17.251,7.131,26.511,10.186c12.176,17.663,30.209,28.11,48.826,28.11c10.446,0,20.628-3.229,30.192-9.564
		l30.015-19.534c6.582-4.27,11.082-10.87,12.705-18.581c1.623-7.694,0.176-15.546-4.111-22.11L296.749,247.023z M318.506,319.9
		c-0.618,2.929-2.312,5.417-4.782,7.041l-30.068,19.778c-6.564,4.341-13.358,6.738-20.151,6.738h-0.018
		c-13.252,0-26.416-8.555-35.186-22.566c-1.147-1.835-2.911-3.307-4.976-3.96c-99.416-31.674-147.201-105.375-146.071-225.19
		c0.018-1.729-0.459-3.465-1.394-4.947c-11.134-17.805-13.446-43.367,7.746-57.396l29.998-19.557c1.8-1.182,3.864-1.785,6.017-1.785
		c3.829,0,7.323,1.887,9.388,5.028l35.556,54.56c3.335,5.135,1.87,12.052-3.264,15.404l-30.068,19.587
		c-2.594,1.729-5.311,3.123-8.064,4.2c-4.482,1.729-6.847,6.652-5.435,11.24c21.74,69.948,72.489,123.608,100.81,149.371
		c3.529,3.194,8.911,3.194,12.37-0.053c1.57-1.447,3.229-2.859,5.1-4.111l29.998-19.551c5.011-3.247,12.193-1.676,15.405,3.247
		l35.556,54.561C318.577,314.024,319.124,316.988,318.506,319.9z"/>
	<path style="fill:#231F20;" d="M212.773,404.546c-0.335,0.194-34.815,19.693-54.472,6.847
		c-11.452-7.482-15.052-24.333-12.687-37.109c0.671-3.67,2.664-11.134,8.064-15.546c0,0,6.317-6.988,18.704-0.035
		c2.647,1.835,4.994,4.235,6.758,6.758c3.882,5.523,4.306,10.323,3.37,11.823c-0.724,1.182-4.253,2.806-12.864,1.465
		c-0.865-0.141-2.365-0.459-2.629-1.129c-1.147-2.982-0.335-6.67,3.176-14.064c0.265-3.194-13.587-5.064-18.105,3.106
		c-1.87,3.37-3.282,11.099-0.971,17.099c1.429,3.723,5.4,10.199,15.899,11.823c18.228,2.823,26.363-3.494,29.962-9.317
		c5.1-8.223,3.6-19.957-3.917-30.633c-3.423-4.87-7.588-8.823-12.14-11.734c-7.641-4.729-16.763-5.576-16.763-5.576
		c-2.541-0.123-5.1,0.071-7.605,0.6c-14.187,3.07-24.545,15.122-27.721,32.239c-3.3,17.752,1.606,42.367,20.116,54.472
		c7.994,5.223,16.993,7.129,25.886,7.129c23.045,0,45.244-12.776,46.514-13.534C234.865,411.428,223.978,396.288,212.773,404.546z"
		/>
	<path style="fill:#231F20;" d="M349.439,12.456H243.176c-18.828,0-33.706,15.142-33.706,33.953v106.263
		c0,18.828,14.878,33.785,33.706,33.785h26.294v12.729c0,6.599,5.451,11.981,12.069,11.981c2.082,0,5.92-1.521,7.561-2.844
		l26.847-21.866h33.492c18.81,0,34.032-14.957,34.032-33.785V46.409C383.471,27.598,368.249,12.456,349.439,12.456z
		 M365.471,152.671c0,8.735-7.297,15.785-16.032,15.785h-36.721c-2.1,0-4.321,0.736-5.962,2.06l-19.285,15.471v-8.329
		c0-5.047-3.709-9.202-8.756-9.202h-35.539c-8.735,0-15.706-7.05-15.706-15.785V46.409c0-8.735,6.971-15.953,15.706-15.953h106.263
		c8.717,0,16.032,7.218,16.032,15.953V152.671z"/>
	<path style="fill:#231F20;" d="M297.878,66.384c3.211,0,5.947-1.147,8.241-3.441c2.276-2.294,3.423-5.064,3.423-8.311
		s-1.129-6.017-3.423-8.311c-2.294-2.294-5.047-3.441-8.241-3.441c-3.247,0-6.017,1.147-8.311,3.441
		c-2.276,2.294-3.423,5.064-3.441,8.311c0,3.247,1.147,6.017,3.441,8.311C291.861,65.237,294.631,66.384,297.878,66.384z"/>
	<path style="fill:#231F20;" d="M314.995,141.456h-4.747c-0.071,0-0.227,0.005-0.28-0.048c-0.988-0.935-1.497-2.942-1.497-6.241
		V82.724c1-0.335,1.923-1.165,1.923-2.347c0-1.165-0.923-2.012-1.923-2.347v-0.574h-0.693h-27.739h-0.568v0.503
		c-1,0.282-2.09,1.381-2.09,2.634c0,1.447,1.193,2.863,2.657,2.863h4.306c0.441,0,1.14,0.295,1.422,0.595
		c1.041,1.129,1.705,3.013,1.705,6.083v44.467c0,3.406-1.027,5.854-2.474,6.854h-9.44c-1.518,0-3.086,1.475-3.086,2.975v0.194
		c0,1.518,1.568,2.831,3.086,2.831h39.438h0.476v-0.308c1-0.282,2.259-1.692,2.259-2.692h-0.259v-0.043
		C317.471,142.913,316.512,141.456,314.995,141.456z"/>
</g>
<g>
</g>
<g>
</g>
<g>
</g>
<g>
</g>
<g>
</g>
<g>
</g>
<g>
</g>
<g>
</g>
<g>
</g>
<g>
</g>
<g>
</g>
<g>
</g>
<g>
</g>
<g>
</g>
<g>
</g>
</svg>
