<?xml version="1.0" encoding="iso-8859-1"?>
<!-- Generator: Adobe Illustrator 19.0.0, SVG Export Plug-In . SVG Version: 6.00 Build 0)  -->
<svg version="1.1" id="Capa_1" xmlns="http://www.w3.org/2000/svg" xmlns:xlink="http://www.w3.org/1999/xlink" x="0px" y="0px"
	 viewBox="0 0 59 59" style="enable-background:new 0 0 59 59;" xml:space="preserve">
<g>
	<g>
		<path d="M51.845,37.005l-10.688-0.004C40.6,37.001,40,36.688,40,36v-7.845C40,26.415,38.584,25,36.843,25H36
			c-2.111,0-3.211-1.663-4.501-4.233c1.09-0.336,2.599-1.14,4.111-3.055C36.222,17.9,36.854,18,37.5,18c3.584,0,6.5-2.916,6.5-6.5
			c0-2.762-1.763-5.186-4.299-6.102c0.148-1.103,0.256-2.186,0.289-3.156c0.021-0.588-0.195-1.146-0.606-1.571
			C38.971,0.244,38.395,0,37.801,0H22.16c-0.593,0-1.169,0.244-1.581,0.67c-0.411,0.426-0.627,0.984-0.606,1.571
			c0.033,0.975,0.141,2.063,0.289,3.169C17.748,6.338,16,8.757,16,11.5c0,3.584,2.916,6.5,6.5,6.5c0.636,0,1.26-0.098,1.864-0.28
			c1.517,1.91,3.04,2.714,4.137,3.048C27.21,23.338,26.111,25,24,25h-1.845C20.415,25,19,26.415,19,28.155v12.689
			C19,41.481,18.481,42,17.845,42H7.155C5.415,42,4,43.415,4,45.155v11.597c0,1.236,1.006,2.242,2.242,2.242L52.757,59
			C53.994,59,55,57.994,55,56.758V40.161C55,38.421,53.585,37.005,51.845,37.005z M38.392,12.181
			c0.136-0.466,0.256-0.942,0.36-1.431c0.05-0.234,0.104-0.499,0.161-0.782c0.041-0.202,0.082-0.411,0.123-0.622
			c0.009-0.044,0.017-0.086,0.026-0.132c0.112-0.578,0.223-1.179,0.328-1.798C40.949,8.14,42,9.722,42,11.5
			c0,2.481-2.019,4.5-4.5,4.5c-0.234,0-0.467-0.019-0.696-0.055c0.119-0.206,0.223-0.425,0.334-0.638
			c0.082-0.159,0.171-0.312,0.248-0.475c0.121-0.254,0.228-0.521,0.338-0.785c0.07-0.169,0.147-0.332,0.213-0.505
			c0.11-0.289,0.204-0.591,0.3-0.891C38.287,12.493,38.345,12.342,38.392,12.181z M22.5,16c-2.481,0-4.5-2.019-4.5-4.5
			c0-1.76,1.036-3.335,2.574-4.067c0.105,0.616,0.215,1.214,0.327,1.789c0.008,0.042,0.016,0.081,0.024,0.122
			c0.043,0.219,0.086,0.435,0.128,0.645c0.056,0.275,0.109,0.532,0.157,0.761c0.104,0.489,0.224,0.967,0.36,1.433
			c0.045,0.155,0.102,0.301,0.15,0.453c0.098,0.306,0.193,0.613,0.305,0.907c0.067,0.176,0.146,0.343,0.217,0.515
			c0.108,0.26,0.213,0.522,0.333,0.772c0.083,0.174,0.177,0.338,0.266,0.507c0.107,0.205,0.207,0.416,0.321,0.614
			C22.943,15.983,22.723,16,22.5,16z M25.527,15.935c-0.166-0.236-0.331-0.489-0.495-0.758c-0.017-0.028-0.034-0.052-0.051-0.081
			c-0.828-1.383-1.438-2.985-1.813-4.762c-0.055-0.259-0.116-0.554-0.18-0.873c-0.006-0.028-0.012-0.061-0.018-0.09
			c-0.059-0.294-0.12-0.608-0.183-0.94c-0.008-0.043-0.016-0.09-0.025-0.134c-0.062-0.331-0.124-0.676-0.185-1.031
			c-0.007-0.039-0.013-0.079-0.02-0.118c-0.063-0.373-0.126-0.755-0.184-1.142c-0.201-1.319-0.362-2.673-0.401-3.833
			c-0.001-0.042,0.015-0.08,0.047-0.113C22.039,2.038,22.087,2,22.16,2h15.641c0.074,0,0.122,0.038,0.144,0.061
			c0.032,0.033,0.048,0.071,0.047,0.113c-0.04,1.138-0.193,2.456-0.392,3.775c-0.001,0.003-0.003,0.006-0.003,0.01
			c-0.256,1.696-0.577,3.316-0.802,4.376c-0.377,1.776-0.987,3.379-1.813,4.763c-0.01,0.017-0.02,0.03-0.03,0.047
			c-0.17,0.28-0.341,0.54-0.511,0.784c-2.201,3.147-4.278,3.079-4.344,3.077L30,18.999l-0.077,0.004
			C29.835,19.004,27.738,19.086,25.527,15.935z M30,22.244c0.5,0.965,1.069,1.941,1.787,2.756h-3.574
			C28.931,24.186,29.5,23.209,30,22.244z M53,56.758C53,56.892,52.891,57,52.757,57L6.242,56.994C6.108,56.994,6,56.886,6,56.752
			V45.155C6,44.519,6.519,44,7.155,44h10.689C19.585,44,21,42.585,21,40.845v-12.69C21,27.519,21.519,27,22.155,27H24h12h0.843
			C37.48,27,38,27.519,38,28.155V36c0,1.709,1.356,2.999,3.155,3.001l10.689,0.004c0.637,0,1.155,0.519,1.155,1.156v16.597H53z"/>
		<path d="M29.5,29c-3.032,0-5.5,2.468-5.5,5.5s2.468,5.5,5.5,5.5s5.5-2.468,5.5-5.5S32.532,29,29.5,29z M29.5,38
			c-1.93,0-3.5-1.57-3.5-3.5s1.57-3.5,3.5-3.5s3.5,1.57,3.5,3.5S31.43,38,29.5,38z"/>
		<path d="M45.5,42c-3.032,0-5.5,2.468-5.5,5.5s2.468,5.5,5.5,5.5s5.5-2.468,5.5-5.5S48.532,42,45.5,42z M45.5,51
			c-1.93,0-3.5-1.57-3.5-3.5s1.57-3.5,3.5-3.5s3.5,1.57,3.5,3.5S47.43,51,45.5,51z"/>
		<path d="M13.5,45C10.468,45,8,47.468,8,50.5s2.468,5.5,5.5,5.5s5.5-2.468,5.5-5.5S16.532,45,13.5,45z M13.5,54
			c-1.93,0-3.5-1.57-3.5-3.5s1.57-3.5,3.5-3.5s3.5,1.57,3.5,3.5S15.43,54,13.5,54z"/>
	</g>
</g>
<g>
</g>
<g>
</g>
<g>
</g>
<g>
</g>
<g>
</g>
<g>
</g>
<g>
</g>
<g>
</g>
<g>
</g>
<g>
</g>
<g>
</g>
<g>
</g>
<g>
</g>
<g>
</g>
<g>
</g>
</svg>
