<?xml version="1.0" encoding="iso-8859-1"?>
<!-- Generator: Adobe Illustrator 19.0.0, SVG Export Plug-In . SVG Version: 6.00 Build 0)  -->
<svg version="1.1" id="Layer_1" xmlns="http://www.w3.org/2000/svg" xmlns:xlink="http://www.w3.org/1999/xlink" x="0px" y="0px"
	 viewBox="0 0 512 512" style="enable-background:new 0 0 512 512;" xml:space="preserve">
<g transform="translate(1)">
	<g>
		<g>
			<path d="M456.387,496.64l-76.738-55.81c11.993-5.308,20.418-17.33,20.418-31.23v-76.8V196.267v-76.8
				c0-18.773-15.36-34.133-34.133-34.133h-45.511l-15.076-45.227c-0.853-3.413-4.267-5.973-7.68-5.973h-85.333
				c-3.413,0-6.827,2.56-7.68,5.973l-15.076,45.227h-45.511c-18.773,0-34.133,15.36-34.133,34.133v76.8V332.8v76.8
				c0,12.213,6.504,22.977,16.216,29.011L53.613,496.64c-2.56,2.56-3.413,5.973-2.56,9.387c0.853,3.413,4.267,5.973,7.68,5.973
				h392.533c3.413,0,6.827-2.56,8.533-5.973C460.653,502.613,459.8,499.2,456.387,496.64z M186.733,460.8v-17.067h128V460.8H186.733
				z M314.733,477.867v17.067h-128v-17.067H314.733z M169.667,460.8h-43.52l21.333-17.067h22.187V460.8z M331.8,443.733h23.893
				l23.325,17.067H331.8V443.733z M383,409.6c0,9.387-7.68,17.067-17.067,17.067H357.4H144.067c-9.387,0-17.067-7.68-17.067-17.067
				v-68.267h256V409.6z M383,324.267H127V204.8h256V324.267z M218.307,51.2h73.387l11.093,34.133h-95.573L218.307,51.2z
				 M127,119.467c0-9.387,7.68-17.067,17.067-17.067h51.2h119.467h51.2c9.387,0,17.067,7.68,17.067,17.067v68.267H127V119.467z
				 M104.813,477.867h64.853v17.067H83.48L104.813,477.867z M331.8,494.933v-17.067h68.267v-1.665l25.6,18.732H331.8z"/>
			<path d="M169.667,409.6c14.507,0,25.6-11.093,25.6-25.6c0-14.507-11.093-25.6-25.6-25.6c-14.507,0-25.6,11.093-25.6,25.6
				C144.067,398.507,155.16,409.6,169.667,409.6z M169.667,375.467c5.12,0,8.533,3.413,8.533,8.533s-3.413,8.533-8.533,8.533
				s-8.533-3.413-8.533-8.533S164.547,375.467,169.667,375.467z"/>
			<path d="M340.333,409.6c14.507,0,25.6-11.093,25.6-25.6c0-14.507-11.093-25.6-25.6-25.6c-14.507,0-25.6,11.093-25.6,25.6
				C314.733,398.507,325.827,409.6,340.333,409.6z M340.333,375.467c5.12,0,8.533,3.413,8.533,8.533s-3.413,8.533-8.533,8.533
				c-5.12,0-8.533-3.413-8.533-8.533S335.213,375.467,340.333,375.467z"/>
			<path d="M314.733,119.467H195.267c-5.12,0-8.533,3.413-8.533,8.533v34.133c0,5.12,3.413,8.533,8.533,8.533h119.467
				c5.12,0,8.533-3.413,8.533-8.533V128C323.267,122.88,319.853,119.467,314.733,119.467z M306.2,153.6H203.8v-17.067h102.4V153.6z"
				/>
			<path d="M67.267,452.267c1.707,0,3.413-0.853,5.12-1.707c3.413-2.56,4.267-8.533,1.707-11.947
				C37.4,389.973,16.067,321.707,16.067,256c0-131.413,107.52-238.933,238.933-238.933S493.933,124.587,493.933,256
				c0,60.587-25.6,130.56-66.56,182.613c-2.56,3.413-1.707,9.387,1.707,11.947c3.413,2.56,9.387,1.707,11.947-1.707
				C484.547,393.387,511,320.853,511,256C511,115.2,395.8,0,255,0S-1,115.2-1,256c0,69.12,23.04,140.8,61.44,192.853
				C62.147,451.413,64.707,452.267,67.267,452.267z"/>
		</g>
	</g>
</g>
<g>
</g>
<g>
</g>
<g>
</g>
<g>
</g>
<g>
</g>
<g>
</g>
<g>
</g>
<g>
</g>
<g>
</g>
<g>
</g>
<g>
</g>
<g>
</g>
<g>
</g>
<g>
</g>
<g>
</g>
</svg>
